<svg width="218" height="27" viewBox="0 0 218 27" fill="none" xmlns="http://www.w3.org/2000/svg">
<path d="M61.4051 8.21478C62.5274 8.21478 63.4054 8.34853 64.0412 8.61604C64.6771 8.88354 65.1534 9.20295 65.4724 9.57227C65.7893 9.94158 65.9871 10.3169 66.0618 10.6962C66.1365 11.0755 66.1748 11.3669 66.1748 11.5706V12.9021C66.1748 13.2175 66.1143 13.5669 65.9932 13.9562C65.872 14.3454 65.5874 14.7607 65.1373 15.2038C64.9314 15.4254 64.6973 15.5911 64.4369 15.7029C64.1745 15.8147 63.9403 15.8966 63.7364 15.9525C63.4922 16.0263 63.2399 16.0642 62.9795 16.0642H60.8479C60.3615 16.0642 59.9315 16.2399 59.5581 16.5913C59.1847 16.9426 58.997 17.3778 58.997 17.8949V19.1425C58.997 19.5857 59.0817 19.9371 59.2493 20.1966C59.324 20.3264 59.4087 20.4361 59.5016 20.53C59.5944 20.6218 59.7357 20.7057 59.9214 20.7795C60.0708 20.8534 60.2626 20.9173 60.4967 20.9732C60.7309 21.0291 61.0337 21.057 61.4091 21.057C61.8956 21.057 62.2791 21.0071 62.5596 20.9053C62.8402 20.8035 63.036 20.7156 63.1491 20.6418C63.3913 20.4581 63.5608 20.2345 63.6537 19.977C63.7465 19.7175 63.793 19.44 63.793 19.1445H66.1768V19.8093C66.1768 20.3084 66.0699 20.7715 65.8539 21.1967C65.6379 21.622 65.3069 21.9913 64.8587 22.3067C64.5398 22.5283 64.1018 22.7219 63.5407 22.8896C62.9795 23.0553 62.269 23.1391 61.4091 23.1391C60.7733 23.1391 60.2222 23.0872 59.7539 22.9874C59.2856 22.8856 58.8799 22.7559 58.5347 22.6001C58.1896 22.4424 57.9029 22.2628 57.6789 22.0591C57.4548 21.8555 57.2671 21.6519 57.1177 21.4483C56.7806 20.9672 56.6212 20.4122 56.6413 19.7834V11.5746C56.6413 11.353 56.6777 11.0575 56.7544 10.6862C56.8291 10.3169 57.0249 9.94757 57.3438 9.57626C57.6607 9.20695 58.1391 8.88754 58.7729 8.62003C59.4087 8.35253 60.2868 8.21877 61.4091 8.21877L61.4051 8.21478ZM63.7889 12.2633V12.0137C63.7889 11.8481 63.7647 11.6664 63.7183 11.4727C63.6719 11.2791 63.5649 11.0935 63.3953 10.9178C63.2278 10.7421 62.9896 10.5944 62.6808 10.4746C62.3719 10.3548 61.9662 10.2949 61.4616 10.2949C60.9569 10.2949 60.5129 10.3548 60.1859 10.4746C59.8589 10.5944 59.6066 10.7381 59.4289 10.9038C59.2513 11.0695 59.1342 11.2512 59.0777 11.4448C59.0212 11.6384 58.9929 11.8101 58.9929 11.9579V14.8425C59.0293 14.6768 59.114 14.5431 59.2452 14.4413C59.3764 14.3394 59.5258 14.2616 59.6934 14.2057C59.8609 14.1498 60.0304 14.1139 60.198 14.0939C60.3655 14.0759 60.4967 14.0659 60.5896 14.0659H62.1882C62.6182 14.0659 62.9916 13.9142 63.3105 13.6088C63.6274 13.3034 63.7869 12.938 63.7869 12.5128V12.2633H63.7889Z" fill="#1C1C15"/>
<path d="M75.5929 12.2354V11.9579C75.5929 11.7742 75.5545 11.5826 75.4799 11.3889C75.4052 11.1953 75.274 11.0136 75.0862 10.8479C74.8985 10.6822 74.6523 10.5485 74.3434 10.4467C74.0346 10.3449 73.647 10.2949 73.1787 10.2949C72.2442 10.2949 71.6124 10.4846 71.2854 10.8639C70.9584 11.2432 70.7949 11.7003 70.7949 12.2374V18.9769C70.7949 19.6796 70.9624 20.2026 71.2995 20.544C71.6366 20.8853 72.2623 21.057 73.1787 21.057C74.0952 21.057 74.7491 20.8773 75.0862 20.516C75.4233 20.1547 75.5909 19.6416 75.5909 18.9769H77.9465V19.7814C77.9465 20.1148 77.8859 20.4801 77.7648 20.8774C77.6437 21.2746 77.4055 21.6399 77.0503 21.9733C76.695 22.3067 76.2085 22.5842 75.5929 22.8058C74.9752 23.0274 74.1719 23.1392 73.1808 23.1392C72.1897 23.1392 71.3863 23.0274 70.7686 22.8058C70.151 22.5842 69.6645 22.3067 69.3113 21.9733C68.956 21.6399 68.7178 21.2766 68.5967 20.8774C68.4756 20.4801 68.415 20.1148 68.415 19.7814V11.5726C68.415 11.1114 68.5039 10.6762 68.6815 10.269C68.8591 9.86175 69.1437 9.50641 69.5373 9.20097C69.9309 8.89554 70.4255 8.65598 71.023 8.48031C71.6204 8.30463 72.3411 8.2168 73.1828 8.2168C74.846 8.2168 76.0571 8.53621 76.8141 9.17303C77.571 9.80985 77.9505 10.6104 77.9505 11.5726V12.2374H75.5949L75.5929 12.2354Z" fill="#1C1C15"/>
<path d="M90.2318 19.3362V19.7794C90.2318 20.001 90.1935 20.2964 90.1188 20.6677C90.0441 21.037 89.8483 21.4083 89.5294 21.7777C89.2105 22.147 88.7341 22.4664 88.1003 22.7339C87.4644 23.0014 86.5864 23.1352 85.4641 23.1352C84.3418 23.1352 83.4637 23.0014 82.8279 22.7339C82.1921 22.4664 81.7157 22.147 81.3968 21.7777C81.0779 21.4083 80.8821 21.033 80.8074 20.6537C80.7327 20.2745 80.6943 19.983 80.6943 19.7794V11.5706C80.6943 11.3669 80.7307 11.0755 80.8074 10.6962C80.8821 10.3169 81.0779 9.94358 81.3968 9.57227C81.7137 9.20295 82.1921 8.88354 82.8279 8.61604C83.4637 8.34853 84.3418 8.21478 85.4641 8.21478C86.5864 8.21478 87.4644 8.34853 88.1003 8.61604C88.7361 8.88354 89.2125 9.20295 89.5294 9.57227C89.8463 9.94158 90.0441 10.3129 90.1188 10.6822C90.1935 11.0515 90.2318 11.347 90.2318 11.5706V19.3362ZM87.848 19.0587V11.9858C87.848 11.8201 87.8197 11.6384 87.7632 11.4448C87.7067 11.2512 87.5896 11.0695 87.412 10.9038C87.2343 10.7381 86.9861 10.5944 86.6692 10.4746C86.3502 10.3548 85.9203 10.2949 85.3793 10.2949C84.8747 10.2949 84.4669 10.3548 84.1601 10.4746C83.8513 10.5944 83.6131 10.7421 83.4456 10.9178C83.278 11.0935 83.169 11.2831 83.1226 11.4867C83.0762 11.6903 83.052 11.866 83.052 12.0137V19.3362C83.052 19.4839 83.0742 19.6596 83.1226 19.8632C83.169 20.0668 83.276 20.2565 83.4456 20.4322C83.6131 20.6078 83.8513 20.7556 84.1601 20.8753C84.469 20.9951 84.8747 21.055 85.3793 21.055C85.9223 21.055 86.3502 20.9951 86.6692 20.8753C86.9861 20.7556 87.2343 20.6118 87.412 20.4461C87.5896 20.2804 87.7067 20.0988 87.7632 19.9051C87.8197 19.7115 87.848 19.5298 87.848 19.3641V19.0587Z" fill="#1C1C15"/>
<path d="M102.514 20.7775C102.514 21.0171 102.49 21.2347 102.443 21.4283C102.397 21.622 102.33 21.8036 102.247 21.9693C102.163 22.135 102.038 22.3027 101.868 22.4684C101.531 22.8018 101.101 23.0274 100.578 23.1472C100.055 23.2669 99.5688 23.253 99.1207 23.1052C98.6524 22.9395 98.1438 22.7579 97.5927 22.5642C97.0417 22.3706 96.5229 22.1989 96.0364 22.0512C95.9052 21.9953 95.7236 21.9314 95.4894 21.8575C95.2553 21.7837 95.12 21.7378 95.0837 21.7198C94.8596 21.6459 94.6255 21.5541 94.3833 21.4423C94.1411 21.3305 93.915 21.1748 93.7111 20.9712C93.5052 20.7676 93.3316 20.4961 93.1923 20.1527C93.0531 19.8113 92.9824 19.3801 92.9824 18.8631V8.51825H95.338V18.0865C95.338 18.4558 95.4168 18.7653 95.5762 19.0148C95.7357 19.2643 95.9315 19.468 96.1656 19.6257C96.3998 19.7834 96.6602 19.9072 96.9508 20.001C97.2395 20.0928 97.5059 20.1866 97.7502 20.2785C98.3113 20.4641 98.7493 20.5839 99.0683 20.6398C99.3852 20.6957 99.6233 20.6857 99.7828 20.6119C99.9423 20.538 100.039 20.4042 100.078 20.2106C100.114 20.017 100.134 19.7634 100.134 19.448V8.52025H102.518V20.7795L102.514 20.7775Z" fill="#1C1C15"/>
<path d="M107.983 2.83478V5.63559H105.627V2.83478H107.983ZM105.627 8.4364H107.983V22.9136H105.627V8.4364Z" fill="#1C1C15"/>
<path d="M111.458 2.80682H113.814V22.9136H111.458V2.80682Z" fill="#1C1C15"/>
<path d="M117.292 2.80682H119.648V22.9136H117.292V2.80682Z" fill="#1C1C15"/>
<path d="M127.19 8.21478C128.313 8.21478 129.191 8.34853 129.826 8.61604C130.462 8.88354 130.939 9.20295 131.256 9.57227C131.572 9.94158 131.77 10.3169 131.845 10.6962C131.92 11.0755 131.958 11.3669 131.958 11.5706V12.9021C131.958 13.2175 131.897 13.5669 131.776 13.9562C131.655 14.3454 131.371 14.7607 130.92 15.2038C130.715 15.4254 130.48 15.5911 130.22 15.7029C129.958 15.8147 129.723 15.8966 129.52 15.9525C129.277 16.0263 129.023 16.0642 128.763 16.0642H126.631C126.145 16.0642 125.715 16.2399 125.341 16.5913C124.968 16.9426 124.78 17.3778 124.78 17.8949V19.1425C124.78 19.5857 124.865 19.9371 125.032 20.1966C125.107 20.3264 125.192 20.4361 125.285 20.53C125.378 20.6218 125.519 20.7057 125.705 20.7795C125.854 20.8534 126.046 20.9173 126.28 20.9732C126.514 21.0291 126.817 21.057 127.192 21.057C127.679 21.057 128.062 21.0071 128.343 20.9053C128.623 20.8035 128.819 20.7156 128.932 20.6418C129.174 20.4581 129.344 20.2345 129.437 19.977C129.53 19.7175 129.578 19.44 129.578 19.1445H131.962V19.8093C131.962 20.3084 131.855 20.7715 131.639 21.1967C131.423 21.622 131.092 21.9913 130.644 22.3067C130.325 22.5283 129.887 22.7219 129.326 22.8896C128.765 23.0553 128.054 23.1391 127.194 23.1391C126.558 23.1391 126.007 23.0872 125.539 22.9874C125.071 22.8856 124.665 22.7559 124.32 22.6001C123.975 22.4424 123.688 22.2628 123.464 22.0591C123.24 21.8555 123.052 21.6519 122.903 21.4483C122.566 20.9672 122.406 20.4122 122.427 19.7834V11.5746C122.427 11.353 122.463 11.0575 122.54 10.6862C122.614 10.3169 122.81 9.94757 123.129 9.57626C123.446 9.20695 123.924 8.88754 124.558 8.62003C125.194 8.35253 126.072 8.21877 127.194 8.21877L127.19 8.21478ZM129.574 12.2633V12.0137C129.574 11.8481 129.55 11.6664 129.503 11.4727C129.457 11.2791 129.35 11.0935 129.18 10.9178C129.013 10.7421 128.775 10.5944 128.466 10.4746C128.157 10.3548 127.751 10.2949 127.247 10.2949C126.742 10.2949 126.298 10.3548 125.971 10.4746C125.644 10.5944 125.392 10.7381 125.214 10.9038C125.036 11.0695 124.919 11.2512 124.863 11.4448C124.806 11.6384 124.778 11.8101 124.778 11.9579V14.8425C124.814 14.6768 124.899 14.5431 125.03 14.4413C125.162 14.3394 125.311 14.2616 125.479 14.2057C125.646 14.1498 125.816 14.1139 125.983 14.0939C126.151 14.0759 126.282 14.0659 126.377 14.0659H127.975C128.405 14.0659 128.779 13.9142 129.098 13.6088C129.415 13.3034 129.574 12.938 129.574 12.5128V12.2633Z" fill="#1C1C15"/>
<path d="M18.1668 14.9723L19.4506 15.645V22.0073C19.3557 21.9713 19.2629 21.9374 19.17 21.9035C19.063 21.8635 18.954 21.8256 18.8491 21.7877C16.7942 21.055 14.921 20.5579 13.2477 20.2286C13.2356 20.2266 13.0479 20.1148 13.0479 20.1148V17.6394L18.1709 14.9743L18.1668 14.9723Z" fill="#006D35"/>
<path d="M23.2084 17.6114V23.2031C22.9984 23.1392 22.7925 23.0773 22.5927 23.0154C21.7066 22.7439 20.8548 22.4864 20.8548 22.4864L20.8164 16.3597L23.2084 17.6114Z" fill="#006D35"/>
<path d="M34.1819 12.5807L34.1778 14.7207L30.2982 16.767V25.0796C28.3161 24.6803 26.3924 24.1513 24.6746 23.6442V16.8189L20.8051 14.8126L20.791 12.5787L27.5833 9.26685L34.1819 12.5787V12.5807Z" fill="#006D35"/>
<path d="M31.6865 17.6374L34.1754 16.3438L34.1572 25.6545C33.3377 25.5826 32.5101 25.4728 31.6885 25.3351V17.6374H31.6865Z" fill="#006D35"/>
<path d="M38.3776 25.6266H38.3716C37.6772 25.7124 36.9626 25.7503 36.234 25.7503C35.5678 25.7503 35.5436 25.7364 35.5436 25.7364L35.5234 15.6411L36.8092 14.9723L41.8515 17.6114V24.6643C41.8515 24.6643 39.8027 25.4509 38.3776 25.6266Z" fill="#006D35"/>
<path d="M53.5734 23.223C53.1071 23.249 52.1726 22.5503 52.1726 22.5503L48.0205 19.7534C48.0205 19.7534 47.9337 19.8033 47.8025 19.8852C46.9042 20.8714 45.5014 22.171 43.606 23.5544C43.608 23.5644 43.4203 23.7281 43.3193 23.7999V16.8189L36.7026 13.3892L35.5198 14.0121L35.5157 11.7083L27.478 7.68378L19.4503 11.8042V14.1079L18.0596 13.3872L11.6568 16.765V19.8892C10.5305 19.7235 9.51318 19.6357 8.6109 19.5977C8.52209 19.5917 8.43327 19.5837 8.34244 19.5778C6.73974 19.474 5.14914 19.5558 3.57874 19.9251L2.68857 20.1387C2.60783 20.1567 2.5069 20.2266 2.44231 20.1387C2.38983 20.0708 2.4625 19.991 2.49479 19.9231C2.9974 18.9409 3.46368 17.9428 4.02079 16.9866C4.76764 15.7009 5.55688 14.4473 6.41879 13.2295C7.10509 12.2613 7.8802 11.369 8.64926 10.4706C9.48694 9.49443 10.4578 8.65598 11.4207 7.80356C12.7105 6.65968 14.178 5.79927 15.6717 4.96083C17.3693 4.00859 19.198 3.41768 21.0833 2.96452C23.5197 2.37961 25.9984 2.23787 28.4893 2.34168C30.5966 2.42951 32.6575 2.82878 34.67 3.46759C35.7055 3.79698 36.7289 4.1663 37.6816 4.67735C39.1814 5.48186 40.6791 6.30434 41.9548 7.44024C42.8995 8.28068 43.8563 9.11913 44.6031 10.1452C45.6931 11.6405 46.4117 13.3094 46.8901 15.0881C47.1686 16.1281 47.4775 17.1602 47.8852 18.1624C47.9922 18.378 48.3031 18.8591 49.1044 19.2743C50.2388 20.001 54.0276 22.4405 54.0276 22.4405C54.0276 22.4405 54.0417 23.1931 53.5734 23.219V23.223Z" fill="#006D35"/>
<path d="M143.391 22.1091C143.274 21.9394 143.216 21.7318 143.216 21.4822L143.27 16.9965C143.325 14.8246 143.351 13.1437 143.351 11.9499C143.351 7.80356 143.117 4.62545 142.648 2.41753C142.919 2.00829 143.26 1.80267 143.674 1.80267C144.34 1.80267 144.948 1.9504 145.497 2.24386C146.046 2.53731 146.5 2.93458 146.859 3.43166C147.562 4.46375 147.913 5.6216 147.913 6.90323C147.913 8.18485 147.624 9.43055 147.049 10.4806C146.472 11.5307 145.636 12.3491 144.538 12.9361L144.592 15.6331L144.647 17.0484C144.665 17.3519 144.673 17.7871 144.673 18.356C144.728 19.5478 144.754 20.518 144.754 21.2666C144.754 21.604 144.681 21.8715 144.538 22.0671C144.394 22.2628 144.168 22.3606 143.864 22.3606C143.666 22.3606 143.508 22.2768 143.391 22.1071V22.1091ZM146.038 9.58626C146.371 8.86559 146.536 8.0511 146.536 7.14278V7.11683C146.536 6.70759 146.492 6.19254 146.401 5.5677C146.346 5.3541 146.247 5.14049 146.104 4.92689C145.961 4.71328 145.878 4.58951 145.862 4.55358C145.737 4.37591 145.404 4.10042 144.863 3.72511L144.16 3.21805C144.16 4.12637 144.215 5.53177 144.322 7.43624L144.483 11.6544C145.186 10.9956 145.702 10.3069 146.036 9.58626H146.038Z" fill="#005A32"/>
<path d="M151.368 22.2548C151.061 22.165 150.91 21.9175 150.91 21.5082V5.99495C150.91 5.69151 150.855 5.23835 150.748 4.63347C150.623 4.08249 150.559 3.62733 150.559 3.27199V3.19214C150.865 2.69306 151.089 2.37365 151.233 2.23192C151.485 2.23192 151.818 2.19598 152.232 2.12611C152.609 2.05424 152.942 2.01831 153.231 2.01831C153.52 2.01831 153.798 2.10216 154.069 2.27184C154.339 2.44153 154.475 2.64116 154.475 2.87273C154.475 3.40574 154.061 3.67325 153.233 3.67325H152.856C152.747 3.65528 152.622 3.64729 152.478 3.64729C152.317 3.64729 152.218 3.65728 152.181 3.67325C152.181 4.27813 152.218 5.00877 152.29 5.86319L152.345 6.60981L152.399 8.07909C152.399 8.41646 152.373 8.9335 152.319 9.62822L152.264 11.1234L152.642 11.0436C153.001 10.9378 153.298 10.8839 153.532 10.8839C153.73 10.8839 153.909 10.9598 154.071 11.1115C154.232 11.2632 154.313 11.4369 154.313 11.6325C154.313 11.8461 154.246 12.0378 154.111 12.2074C153.976 12.3771 153.81 12.461 153.613 12.461L153.288 12.435H152.936C152.666 12.435 152.478 12.4969 152.369 12.6227V20.8734L153.881 20.7935C154.906 20.7935 155.419 21.0251 155.419 21.4883V21.5941C155.312 21.8077 155.112 21.9813 154.826 22.1151C154.537 22.2488 154.259 22.3327 153.988 22.3686L153.098 22.3946H152.26C151.919 22.3946 151.62 22.3507 151.37 22.2608L151.368 22.2548Z" fill="#005A32"/>
<path d="M158.671 22.0412C158.411 21.8815 158.28 21.6579 158.28 21.3744C158.675 20.9832 158.873 19.9411 158.873 18.2502C158.873 17.2361 158.792 15.7588 158.631 13.8184C158.451 11.9679 158.36 10.5086 158.36 9.44054L158.415 7.97126C158.433 7.54405 158.441 7.05496 158.441 6.50198C158.441 6.00291 158.35 5.37208 158.171 4.6055C157.955 3.80498 157.848 3.24402 157.848 2.92261C157.848 2.29977 158.54 1.98834 159.927 1.98834H160.332C161.303 1.98834 162.149 2.2818 162.87 2.86871C163.445 3.36779 163.931 4.08845 164.327 5.03071C164.598 5.67152 164.832 6.56187 165.03 7.69977C165.137 8.69592 165.191 9.48047 165.191 10.0494V12.1595C165.155 12.2314 165.137 12.3012 165.137 12.3731C165.137 12.5148 165.145 12.6226 165.163 12.6925C165.181 12.7644 165.189 12.8522 165.189 12.96C165.189 13.529 165.104 14.2117 164.933 15.0022C164.761 15.7948 164.515 16.5993 164.19 17.4178C163.38 19.3761 162.47 20.7636 161.463 21.5821C160.869 22.0452 160.248 22.2768 159.6 22.2768C159.238 22.2768 158.93 22.1969 158.669 22.0372L158.671 22.0412ZM161.925 18.9569C162.43 18.1824 162.815 17.3239 163.086 16.3797C163.572 14.6349 163.814 12.8742 163.814 11.0935C163.814 10.1333 163.724 9.0832 163.544 7.94331C163.346 6.83936 162.922 5.8432 162.274 4.95285C161.967 4.52564 161.582 4.19226 161.114 3.95071C160.645 3.71115 160.114 3.58938 159.521 3.58938V3.61533C159.521 5.21636 159.628 7.63788 159.844 10.8779C160.06 14.0999 160.167 16.5374 160.167 18.1943V20.7316C160.833 20.3224 161.418 19.7295 161.921 18.9569H161.925Z" fill="#005A32"/>
<path d="M172.452 21.7737V21.6939C172.398 20.7516 172.236 19.7016 171.966 18.5437C171.695 17.3878 171.3 15.9904 170.779 14.3515C170.383 13.1237 170.05 12.0198 169.78 11.0416V21.5601C169.78 21.8456 169.729 22.0532 169.63 22.187C169.532 22.3207 169.338 22.3866 169.049 22.3866C168.833 22.3866 168.662 22.3207 168.536 22.187C168.411 22.0532 168.347 21.8795 168.347 21.6659V21.4523L168.401 13.6029C168.438 11.2891 168.456 8.68197 168.456 5.77935V2.49742C168.456 2.28382 168.5 2.13609 168.591 2.05624C168.682 1.97639 168.869 1.93646 169.158 1.93646C169.608 1.93646 170.022 2.02031 170.4 2.18999C170.777 2.35968 171.102 2.59524 171.372 2.89668C171.93 3.51953 172.291 4.26814 172.452 5.13853C172.523 5.49387 172.561 5.90312 172.561 6.36626C172.561 6.63376 172.539 6.92722 172.495 7.24663C172.45 7.56604 172.418 7.77166 172.4 7.86149C172.364 8.03916 172.283 8.30666 172.158 8.66201C172.032 9.01735 171.95 9.24892 171.915 9.35672L171.59 10.1033L171.32 10.7981C171.338 11.4389 171.451 12.2494 171.657 13.2276C171.863 14.2057 172.093 15.1141 172.345 15.9505C172.525 16.5374 172.85 17.5176 173.316 18.8871L174.099 21.2367V21.2906C174.099 21.5941 174.073 21.8516 174.019 22.0652C173.964 22.3487 173.776 22.4924 173.452 22.4924C173.108 22.4924 172.777 22.2528 172.452 21.7717V21.7737ZM170.644 8.79975L171.049 6.504C171.068 6.41617 171.076 6.2904 171.076 6.13069C171.076 5.61565 170.977 5.01875 170.779 4.34201C170.67 4.0226 170.531 3.7511 170.361 3.52752C170.19 3.30593 170.014 3.18415 169.834 3.16619L169.78 5.83524C169.725 7.02703 169.699 7.95332 169.699 8.6121C169.699 9.23495 169.707 9.64419 169.725 9.83983C169.978 9.59029 170.282 9.24293 170.644 8.79776V8.79975Z" fill="#005A32"/>
<path d="M176.907 22.2548C176.6 22.165 176.449 21.9175 176.449 21.5082V5.99495C176.449 5.69151 176.394 5.23835 176.287 4.63347C176.162 4.08249 176.098 3.62733 176.098 3.27199V3.19214C176.404 2.69306 176.629 2.37365 176.772 2.23192C177.024 2.23192 177.357 2.19598 177.771 2.12611C178.148 2.05424 178.482 2.01831 178.77 2.01831C179.059 2.01831 179.337 2.10216 179.608 2.27184C179.878 2.44153 180.014 2.64116 180.014 2.87273C180.014 3.40574 179.6 3.67325 178.772 3.67325H178.395C178.286 3.65528 178.161 3.64729 178.017 3.64729C177.856 3.64729 177.757 3.65728 177.721 3.67325C177.721 4.27813 177.757 5.00877 177.83 5.86319L177.884 6.60981L177.939 8.07909C177.939 8.41646 177.912 8.9335 177.858 9.62822L177.803 11.1234L178.181 11.0436C178.54 10.9378 178.837 10.8839 179.071 10.8839C179.269 10.8839 179.448 10.9598 179.61 11.1115C179.771 11.2632 179.852 11.4369 179.852 11.6325C179.852 11.8461 179.785 12.0378 179.65 12.2074C179.515 12.3771 179.349 12.461 179.152 12.461L178.827 12.435H178.475C178.205 12.435 178.017 12.4969 177.908 12.6227V20.8734L179.42 20.7935C180.446 20.7935 180.958 21.0251 180.958 21.4883V21.5941C180.851 21.8077 180.651 21.9813 180.365 22.1151C180.076 22.2488 179.798 22.3327 179.527 22.3686L178.637 22.3946H177.799C177.458 22.3946 177.159 22.3507 176.909 22.2608L176.907 22.2548Z" fill="#005A32"/>
<path d="M183.142 21.4004C183.142 20.9732 183.412 20.7596 183.951 20.7596H184.274C184.347 20.7775 184.428 20.7855 184.516 20.7855C184.66 20.7855 184.763 20.7416 184.827 20.6518C184.89 20.5619 184.922 20.4022 184.922 20.1707C184.922 18.6575 184.831 16.5933 184.652 13.9761C184.49 11.2532 184.409 9.19699 184.409 7.80956C184.409 7.31248 184.417 6.85733 184.436 6.44808L184.462 5.0866C184.462 4.49969 184.436 4.0106 184.381 3.61733C184.183 3.68919 183.975 3.72513 183.759 3.72513C183.346 3.72513 183.138 3.51152 183.138 3.08431C183.138 2.87071 183.269 2.68306 183.529 2.52335C183.79 2.36365 184.127 2.24786 184.543 2.17599C185.298 2.05222 185.937 1.98834 186.46 1.98834C186.676 1.98834 186.86 2.06021 187.013 2.20195C187.167 2.34368 187.243 2.51337 187.243 2.70901C187.243 2.90465 187.185 3.07433 187.068 3.21607C186.951 3.35781 186.801 3.42967 186.622 3.42967C186.513 3.42967 186.424 3.42169 186.351 3.40372H186.135C185.956 3.40372 185.824 3.44365 185.744 3.5235C185.663 3.60335 185.622 3.75108 185.622 3.96468C185.622 5.85119 185.74 8.45038 185.974 11.7602C186.19 15.2318 186.297 17.839 186.297 19.5838V20.5979C186.422 20.5799 186.603 20.5719 186.836 20.5719C187.593 20.5719 187.97 20.8834 187.97 21.5062V21.6659L187.296 22.1191C187.278 22.1191 187.223 22.1231 187.134 22.133C187.044 22.143 186.864 22.147 186.595 22.147C185.984 22.1829 185.606 22.2009 185.461 22.2009C183.913 22.2009 183.14 21.9334 183.14 21.4004H183.142Z" fill="#005A32"/>
<path d="M194.696 21.7737V21.6939C194.641 20.7516 194.48 19.7016 194.209 18.5437C193.939 17.3878 193.543 15.9904 193.022 14.3515C192.627 13.1237 192.293 12.0198 192.023 11.0416V21.5601C192.023 21.8456 191.973 22.0532 191.874 22.187C191.775 22.3207 191.581 22.3866 191.292 22.3866C191.076 22.3866 190.905 22.3207 190.78 22.187C190.654 22.0532 190.59 21.8795 190.59 21.6659V21.4523L190.644 13.6029C190.681 11.2891 190.699 8.68197 190.699 5.77935V2.49742C190.699 2.28382 190.743 2.13609 190.834 2.05624C190.925 1.97639 191.113 1.93646 191.401 1.93646C191.851 1.93646 192.265 2.02031 192.643 2.18999C193.02 2.35968 193.345 2.59524 193.616 2.89668C194.173 3.51953 194.534 4.26814 194.696 5.13853C194.766 5.49387 194.805 5.90312 194.805 6.36626C194.805 6.63376 194.782 6.92722 194.738 7.24663C194.693 7.56604 194.661 7.77166 194.643 7.86149C194.607 8.03916 194.526 8.30666 194.401 8.66201C194.276 9.01735 194.193 9.24892 194.159 9.35672L193.834 10.1033L193.563 10.7981C193.581 11.4389 193.694 12.2494 193.9 13.2276C194.106 14.2057 194.336 15.1141 194.589 15.9505C194.768 16.5374 195.093 17.5176 195.559 18.8871L196.343 21.2367V21.2906C196.343 21.5941 196.316 21.8516 196.262 22.0652C196.207 22.3487 196.02 22.4924 195.695 22.4924C195.352 22.4924 195.02 22.2528 194.696 21.7717V21.7737ZM192.887 8.79975L193.293 6.504C193.311 6.41617 193.319 6.2904 193.319 6.13069C193.319 5.61565 193.22 5.01875 193.022 4.34201C192.913 4.0226 192.774 3.7511 192.604 3.52752C192.433 3.30593 192.257 3.18415 192.077 3.16619L192.023 5.83524C191.968 7.02703 191.942 7.95332 191.942 8.6121C191.942 9.23495 191.95 9.64419 191.968 9.83983C192.221 9.59029 192.526 9.24293 192.887 8.79776V8.79975Z" fill="#005A32"/>
<path d="M203.214 22.0692C203.079 21.9614 203.013 21.7837 203.013 21.5362V18.0386C202.778 17.8789 202.338 17.7352 201.69 17.6114C201.043 17.4877 200.431 17.4078 199.856 17.3719C199.658 17.7452 199.512 18.2003 199.424 18.7334L199.317 19.2664C199.299 19.3901 199.244 19.6676 199.155 20.0948C199.064 20.5221 198.965 20.8914 198.858 21.2028C198.751 21.5142 198.643 21.7598 198.536 21.9374C197.851 21.9374 197.456 21.7598 197.349 21.4044C197.546 21.1189 197.771 20.2825 198.023 18.8951L198.913 14.0101C199.309 11.6964 199.674 9.72005 200.007 8.08309C200.34 6.44612 200.695 5.07466 201.073 3.9707C201.487 2.74297 201.882 2.12811 202.26 2.12811C202.637 2.12811 202.926 2.19998 203.124 2.34172C203.124 3.0544 203.295 4.77122 203.636 7.49418C203.996 10.1632 204.175 11.9879 204.175 12.968C204.175 13.9482 204.274 15.2638 204.472 17.0265C204.652 18.8252 204.742 20.2565 204.742 21.3246C204.742 21.9294 204.446 22.2329 203.852 22.2329C203.564 22.2329 203.354 22.179 203.218 22.0732L203.214 22.0692ZM202.984 16.4077C202.93 15.6251 202.841 14.6549 202.714 13.4971C202.3 9.47451 202.092 7.00907 202.092 6.10076V5.88715C201.913 6.06482 201.664 6.87133 201.349 8.30268C201.034 9.73602 200.742 11.2712 200.471 12.9082C200.201 14.5451 200.057 15.6311 200.039 16.1661C200.796 16.3797 201.596 16.4855 202.441 16.4855C202.585 16.4855 202.764 16.4596 202.98 16.4057L202.984 16.4077Z" fill="#005A32"/>
<path d="M207.817 22.4684C207.528 22.3087 207.385 22.1211 207.385 21.9075C207.385 21.6938 207.439 21.5202 207.546 21.3864C207.655 21.2527 207.807 21.1868 208.004 21.1868C208.184 21.1868 208.444 21.2587 208.788 21.4004C209.165 21.5421 209.399 21.614 209.49 21.614C209.831 21.614 210.142 21.4663 210.421 21.1728C210.699 20.8794 210.919 20.4921 211.083 20.011C211.408 19.1206 211.569 18.3201 211.569 17.6074C211.569 16.8428 211.448 16.0363 211.206 15.1919C210.964 14.3475 210.635 13.523 210.221 12.7225L209.789 11.868C209.339 10.9777 208.992 10.275 208.749 9.75795C208.507 9.24291 208.295 8.68195 208.115 8.07507C207.845 7.22065 207.71 6.39219 207.71 5.59167C207.71 4.95086 207.823 4.34598 208.047 3.77703C208.271 3.20808 208.61 2.72697 209.06 2.3357C209.51 1.90849 210.067 1.69489 210.733 1.69489C211.056 1.69489 211.371 1.78871 211.678 1.97437C211.985 2.16202 212.199 2.39758 212.326 2.68106L211.868 3.24202C211.4 3.24202 211.048 3.15418 210.814 2.97452C210.489 3.01045 210.207 3.16616 209.964 3.44165C209.722 3.71714 209.536 4.03455 209.411 4.38989C209.304 4.72727 209.25 5.06664 209.25 5.40402C209.25 6.08076 209.345 6.76949 209.532 7.47418C209.722 8.17688 209.968 8.83965 210.275 9.4625L212.165 13.1996C212.471 13.8404 212.714 14.5611 212.893 15.3616C213.073 16.1621 213.164 16.9626 213.164 17.7651C213.164 18.939 212.875 20.0429 212.3 21.075C211.993 21.608 211.597 22.0312 211.113 22.3426C210.627 22.6541 210.088 22.8098 209.494 22.8098C208.846 22.8098 208.289 22.694 207.821 22.4624L207.817 22.4684Z" fill="#005A32"/>
</svg>
