<svg width="71" height="71" viewBox="0 0 71 71" fill="none" xmlns="http://www.w3.org/2000/svg">
<path d="M70.1824 67.7497C70.0869 65.3795 68.2237 63.5763 65.8485 63.5594C64.5497 63.5509 63.1682 63.5442 61.779 63.5645C61.4224 63.5712 61.1833 63.4816 60.9323 63.2459C56.9321 59.5009 52.8618 55.7001 48.9241 52.0253L45.6084 48.9309C44.6544 48.0394 43.6987 47.1471 42.7447 46.2557C39.7957 43.4993 36.747 40.6508 33.7337 37.8607C33.3653 37.5193 33.2318 37.2117 33.247 36.7233C33.2817 35.6409 32.7687 35.0595 31.6779 34.9488C31.0669 34.8863 30.4585 34.899 29.9946 34.9176C29.9718 34.9193 29.9515 34.9193 29.9304 34.9193C29.7986 34.9193 29.7538 34.9024 29.7504 34.9024C29.7471 34.8956 29.7192 34.8381 29.7226 34.6683C29.7454 33.2589 29.7471 31.7522 29.7242 29.7851C29.7226 29.6727 29.7327 29.6152 29.7411 29.5891C29.764 29.584 29.8104 29.5789 29.8932 29.5823C30.4856 29.6068 31.0898 29.6051 31.6922 29.5755C32.4713 29.5358 33.0425 29.1547 33.3442 28.4745C33.6332 27.823 33.5208 27.1876 33.0121 26.5834C32.8651 26.4085 32.7147 26.2302 32.5516 26.057C30.5811 23.9639 28.6122 21.8701 26.6417 19.7787L22.8621 15.7633C22.3686 15.2386 21.8768 14.7138 21.3833 14.1891C20.2595 12.9909 19.0976 11.7513 17.9442 10.5421C17.6933 10.2793 17.7017 9.98611 17.8158 9.54164C17.8749 9.54164 17.9594 9.55178 18.0186 9.55854C18.1107 9.56868 18.207 9.58305 18.3059 9.58136C19.7846 9.57121 21.2879 9.57121 22.7421 9.5729H24.7971C26.3434 9.57121 27.0051 8.90282 27.0118 7.33706C27.0169 5.93268 27.0169 4.67027 27.0118 3.47714C27.0034 1.90461 26.3003 1.20158 24.7329 1.19482L23.7214 1.19144C22.1438 1.18299 20.5113 1.17454 18.9058 1.20496L18.8154 1.20665C17.8183 1.22608 17.5826 1.16017 17.5412 0.46728C17.5327 0.342221 17.4786 0.254343 17.4491 0.214628L17.3333 0H16.2509L16.1334 0.0937928C15.6501 0.474884 15.6501 1.00132 15.6518 1.38748V4.17848C15.6518 6.04507 15.6501 7.97587 15.6602 9.87372C15.6619 10.1974 15.5791 10.4002 15.3467 10.6477C11.8856 14.3395 8.37555 18.1039 4.98376 21.7433L2.75044 24.138C2.50286 24.405 2.25527 24.6712 2.00769 24.9399C1.56576 25.4165 1.12637 25.8922 0.679366 26.3629C0.392069 26.6679 0.180821 26.9831 0.035483 27.3287L0.000835501 27.4081V28.1129L0.0270352 28.1838C0.376861 29.1497 1.12298 29.6347 2.17753 29.5899C2.39723 29.5798 2.61524 29.5831 2.84931 29.5865C3.06901 29.5899 3.298 29.5933 3.52615 29.5848C3.57431 29.5831 3.60726 29.5865 3.62839 29.5882C3.63008 29.611 3.63346 29.644 3.63008 29.6955C3.62332 29.818 3.62501 29.933 3.62669 30.0453C3.62839 30.0952 3.63008 30.1459 3.63008 30.1958V67.5334C3.63008 67.7725 3.63008 68.0184 3.61065 68.1325C3.49319 68.1536 3.23462 68.1536 2.98366 68.1536C2.82226 68.1536 2.66172 68.1536 2.50033 68.1553C2.12937 68.157 1.74575 68.1604 1.37311 68.1502C0.855131 68.135 0.446992 68.2803 0.12843 68.5955L0 68.7223V69.6053L0.105624 69.7261C0.46559 70.1452 0.921033 70.2002 1.30212 70.2002C1.3731 70.2002 1.44071 70.1985 1.50662 70.1968C1.56914 70.1951 1.63167 70.1934 1.69166 70.1934H67.8545C68.9589 70.1934 69.5149 70.1934 69.8808 69.814C70.2458 69.4329 70.2238 68.8702 70.1807 67.748L70.1824 67.7497ZM17.7702 3.55234C17.7702 3.42982 17.782 3.37405 17.7913 3.35292C17.8107 3.34616 17.8623 3.33603 17.9561 3.33603C20.0635 3.34955 22.2714 3.34955 24.7109 3.33603C24.7937 3.33434 24.8394 3.34278 24.8613 3.34785C24.8664 3.37067 24.8732 3.41545 24.8715 3.48981C24.8563 4.77251 24.8563 6.06957 24.8715 7.34804C24.8732 7.45029 24.8613 7.50014 24.8546 7.51957C24.8334 7.52633 24.7768 7.53901 24.6661 7.53901C23.8592 7.52549 23.0421 7.52718 22.2503 7.53056C21.9284 7.53056 21.6064 7.53225 21.2828 7.53225C20.9693 7.53732 20.6474 7.53056 20.3271 7.53056C19.5548 7.52718 18.7563 7.5238 17.967 7.53901C17.8631 7.5407 17.8099 7.53056 17.7887 7.5238C17.782 7.50268 17.7693 7.44944 17.7718 7.34382C17.7854 6.13717 17.7854 4.89672 17.7718 3.55319L17.7702 3.55234ZM29.742 37.0546C29.7648 37.0461 29.8265 37.0284 29.9651 37.0284H30.0344C30.516 37.03 31.0593 37.03 31.1337 37.1061C31.2131 37.1889 31.2131 37.7593 31.2131 38.2612C31.2148 38.8518 31.2131 39.4425 31.2114 40.034C31.2081 41.3775 31.2047 42.7701 31.2249 44.1381V44.1744C31.2249 44.3925 31.1971 44.4499 31.1971 44.4533C31.1971 44.455 31.143 44.4896 30.9165 44.4879L30.8354 44.4862C30.3681 44.4795 29.8865 44.4727 29.802 44.4051C29.731 44.3147 29.731 43.8094 29.731 43.321V40.6889C29.731 40.3686 29.7327 40.0483 29.7344 39.7281C29.7378 38.9347 29.7411 38.1142 29.7226 37.3055C29.7192 37.1441 29.7344 37.0791 29.742 37.0546ZM2.56201 27.4369C4.30185 25.5635 6.04253 23.6936 7.78237 21.8227C10.6444 18.7478 13.6035 15.5664 16.5077 12.4307C16.6032 12.3284 16.6598 12.287 16.6877 12.2693C16.7173 12.2862 16.7764 12.3318 16.8795 12.4425C20.2975 16.0996 23.7797 19.8083 27.1479 23.3978C28.4103 24.7413 29.6727 26.0866 30.9351 27.4343C26.9197 27.4394 22.9026 27.4394 18.8872 27.4394H14.5668C10.5649 27.4394 6.56389 27.4394 2.56201 27.436V27.4369ZM11.0652 67.9111C11.0668 68.0547 11.0499 68.119 11.0406 68.1418C11.0161 68.1502 10.9502 68.1663 10.7948 68.1629C9.03718 68.135 7.48408 68.135 6.04675 68.1646C5.86846 68.168 5.80593 68.1435 5.79917 68.1435C5.79241 68.1316 5.76453 68.064 5.76622 67.8562C5.78143 65.5882 5.77805 63.2831 5.77636 61.0548V58.726C5.77636 57.9326 5.77636 57.1417 5.77805 56.3482C5.78143 54.1783 5.7848 51.9365 5.76114 49.7303C5.75776 49.4447 5.80762 49.3821 5.80762 49.3821C5.80931 49.3804 5.86507 49.334 6.16927 49.3407C7.73419 49.3821 9.3118 49.3686 10.7838 49.3458C10.9502 49.3441 11.0178 49.3593 11.0415 49.3686C11.0499 49.3914 11.066 49.4514 11.066 49.5883C11.0491 55.5446 11.0491 61.7088 11.0643 67.9119L11.0652 67.9111ZM20.1184 68.1494C20.0939 68.1544 20.0508 68.1595 19.9781 68.1578C19.1847 68.1443 18.3802 68.1477 17.602 68.1494C17.2868 68.1511 16.97 68.1511 16.6548 68.1511C16.3396 68.1511 16.0244 68.1511 15.7109 68.1494C14.9749 68.1443 14.2144 68.1409 13.4649 68.1612C13.2765 68.1646 13.2106 68.1418 13.2021 68.1418C13.1971 68.1333 13.1743 68.0776 13.1793 67.9271C13.2106 67.0475 13.2004 66.1712 13.1844 65.2004C13.1827 65.1226 13.1911 65.0795 13.1962 65.0567C13.219 65.0516 13.2604 65.0449 13.3517 65.0432C15.705 65.0567 17.8749 65.0567 19.9849 65.0432C20.0508 65.0432 20.0922 65.0483 20.115 65.0516C20.1201 65.0778 20.1268 65.1277 20.1251 65.213C20.1057 66.1704 20.1057 67.1092 20.1251 68.0023C20.1268 68.0801 20.1218 68.1249 20.1167 68.1494H20.1184ZM20.1133 62.9045C20.0905 62.913 20.0322 62.929 19.8852 62.9256C19.1281 62.9121 18.3616 62.9155 17.6189 62.9189C16.9987 62.9206 16.3776 62.9206 15.7574 62.9172C15.0003 62.9138 14.2195 62.9104 13.4489 62.9273C13.2689 62.9324 13.2131 62.9011 13.2114 62.9011C13.2081 62.8978 13.1768 62.8437 13.1819 62.6552C13.2064 61.7967 13.2013 60.9458 13.1852 59.9335C13.1835 59.8524 13.192 59.8051 13.1971 59.7831C13.2199 59.778 13.2647 59.7696 13.3441 59.7713C15.5816 59.7831 17.8116 59.7831 19.9722 59.7696C20.0483 59.7679 20.093 59.7747 20.1175 59.7814C20.1226 59.8042 20.1277 59.849 20.126 59.9234C20.1015 61.016 20.1032 61.9024 20.1277 62.7161C20.1311 62.8302 20.1192 62.8859 20.1125 62.9045H20.1133ZM13.1835 49.5579C13.1819 49.4455 13.1937 49.3897 13.2004 49.3661C13.2216 49.361 13.2731 49.3509 13.3669 49.3509C15.2859 49.3644 17.3308 49.3661 20.0026 49.3525C20.0584 49.3525 20.0981 49.3559 20.1201 49.361C20.1235 49.3821 20.1268 49.4168 20.1251 49.47C20.1082 50.5381 20.1082 51.4735 20.1268 52.3269C20.1285 52.3911 20.1235 52.4325 20.1201 52.4554C20.0939 52.4604 20.044 52.4672 19.9604 52.4655C19.1669 52.4537 18.3608 52.4554 17.5826 52.457C17.2674 52.4587 16.9539 52.4604 16.6387 52.4604C16.3303 52.4554 16.0134 52.4587 15.6999 52.457C14.9394 52.4537 14.157 52.452 13.383 52.4672C13.2723 52.4689 13.2199 52.457 13.1979 52.4503C13.1912 52.4292 13.181 52.3793 13.1827 52.2804C13.2021 51.4143 13.2021 50.5246 13.1827 49.5587L13.1835 49.5579ZM13.1869 54.7402C13.1869 54.6413 13.2004 54.6016 13.1988 54.5966C13.2089 54.5915 13.2545 54.5754 13.3652 54.5754H13.3686C15.3983 54.5805 17.5657 54.5822 19.9967 54.5771C20.0525 54.5805 20.0956 54.5822 20.1142 54.5873C20.1192 54.6067 20.1243 54.6447 20.1226 54.7098C20.1091 55.7711 20.1091 56.7268 20.1243 57.6309C20.126 57.6774 20.1226 57.7087 20.1192 57.7298C20.0947 57.7332 20.055 57.7382 19.9942 57.7366C19.199 57.7264 18.3946 57.7281 17.6147 57.7298C17.3012 57.7315 16.9877 57.7315 16.6759 57.7315C16.3573 57.7382 16.0422 57.7315 15.7253 57.7298C14.9496 57.7281 14.146 57.7264 13.3551 57.7382C13.2647 57.7399 13.2182 57.7315 13.1937 57.7247C13.1886 57.7036 13.1835 57.6622 13.1835 57.5912C13.1971 56.7395 13.1988 55.8057 13.1852 54.7394L13.1869 54.7402ZM27.5636 68.1308C27.5636 68.1308 27.5045 68.1739 27.2569 68.1671C26.4913 68.146 25.73 68.1375 24.9923 68.1375C24.1143 68.1375 23.271 68.1494 22.5038 68.162H22.4759C22.3238 68.162 22.2731 68.1409 22.2714 68.1409C22.2664 68.1325 22.2402 68.075 22.2402 67.8883C22.252 61.2306 22.252 55.2582 22.2385 49.6289C22.2368 49.4328 22.2697 49.3779 22.268 49.3762C22.2731 49.3728 22.3323 49.3399 22.5604 49.3433C24.2605 49.3728 25.8136 49.3728 27.3101 49.3433H27.3431C27.5197 49.3433 27.5678 49.3694 27.5678 49.3694C27.5712 49.3745 27.6042 49.4337 27.6025 49.6517C27.589 51.9179 27.5906 54.2214 27.5923 56.4496C27.594 57.227 27.594 58.0044 27.594 58.7818C27.594 59.5592 27.594 60.3577 27.5923 61.1452C27.5906 63.3186 27.5873 65.5679 27.6042 67.7793C27.6059 68.0666 27.5644 68.1274 27.5628 68.1308H27.5636ZM27.6075 46.8429C27.6075 47.1302 27.5535 47.1877 27.5518 47.1911C27.545 47.1961 27.4909 47.2451 27.1707 47.2485C23.7037 47.2401 20.1877 47.2367 16.6429 47.2367C13.0982 47.2367 9.65233 47.2401 6.14477 47.2468H6.1397C5.86761 47.2468 5.81269 47.2004 5.81269 47.2004C5.81269 47.2004 5.76453 47.1446 5.76622 46.8683C5.78734 40.841 5.78734 35.3122 5.76284 29.9634C5.76284 29.6845 5.81099 29.6237 5.81099 29.6237C5.81437 29.622 5.86846 29.5738 6.18702 29.5772C8.79297 29.5967 11.4403 29.5941 14.0032 29.5907C15.7743 29.5891 17.5479 29.5891 19.3207 29.5907C21.9081 29.5924 24.585 29.5958 27.218 29.5789C27.5002 29.5722 27.5611 29.6203 27.5628 29.622C27.5628 29.6237 27.6075 29.6778 27.6075 29.9406C27.5864 35.6257 27.5864 41.3116 27.6075 46.8438V46.8429ZM35.4271 68.1409C35.406 68.1494 35.346 68.1637 35.2125 68.162C33.1067 68.1359 31.4979 68.1375 29.9972 68.1654C29.8273 68.1688 29.7631 68.146 29.7564 68.146H29.7547C29.7496 68.1342 29.7217 68.0699 29.7234 67.8502C29.7352 65.2046 29.7335 62.515 29.7319 59.9141V57.3048C29.7319 56.4116 29.7319 55.5176 29.7335 54.6261C29.7369 52.0912 29.7403 49.4717 29.7183 46.8928C29.715 46.5911 29.7665 46.5328 29.7665 46.5328C29.7665 46.5328 29.824 46.4863 30.1129 46.4982C30.2034 46.5032 30.2946 46.5066 30.3867 46.5117C31.0103 46.543 31.6542 46.5759 32.3125 46.4196C32.3437 46.4365 32.4003 46.4906 32.4409 46.5269L32.4578 46.5421C32.778 46.8328 33.0966 47.1277 33.4169 47.4201C34.0007 47.9549 34.6049 48.5109 35.2057 49.0492C35.3789 49.2064 35.4465 49.3644 35.4465 49.617C35.4415 55.0005 35.4381 61.3878 35.4499 67.9314C35.4499 68.0615 35.4347 68.1181 35.4271 68.1392V68.1409ZM45.8391 67.8325V67.8655C45.8391 68.0649 45.8112 68.1266 45.8112 68.1325C45.8044 68.1359 45.7503 68.1722 45.5112 68.1671C44.2632 68.1519 43.0244 68.146 41.811 68.146C40.4573 68.146 39.1341 68.1528 37.8632 68.1612C37.6866 68.1629 37.6173 68.1477 37.5911 68.1384C37.5844 68.1139 37.5683 68.0556 37.5683 67.9271C37.5818 63.7267 37.5818 59.4544 37.5801 55.3233V51.2572L37.8455 51.498C38.5037 52.0937 39.1341 52.6666 39.7619 53.2437C40.4269 53.8563 41.0919 54.4698 41.7569 55.0841C42.9602 56.1944 44.204 57.3436 45.4352 58.4641C45.7326 58.7345 45.8425 58.9804 45.8382 59.3699C45.812 62.3519 45.812 65.1184 45.8382 67.8317L45.8391 67.8325ZM47.873 62.8665C47.8713 62.1516 47.8696 61.4376 47.8713 60.7227L55.935 68.1494C55.0985 68.1511 54.2619 68.1511 53.4279 68.1494C51.7379 68.1494 49.9905 68.1477 48.271 68.1663C47.9625 68.1696 47.9 68.1266 47.8949 68.1232C47.8949 68.1215 47.8485 68.0623 47.8535 67.7894C47.8797 66.1476 47.8763 64.4787 47.873 62.8665ZM68.0218 68.1511C68.0006 68.1544 67.9677 68.1561 67.9178 68.1578C66.5067 68.1528 65.0398 68.1511 63.4022 68.1511C62.1415 68.1511 60.7785 68.1511 59.2601 68.1544H59.2584C59.1029 68.1544 58.9778 68.0902 58.7818 67.9119C56.2747 65.6 53.7651 63.289 51.2563 60.9771C49.1244 59.0133 46.9933 57.0496 44.8614 55.085C42.6568 53.0536 40.4531 51.0214 38.2502 48.99L33.5783 44.6823C33.5504 44.6544 33.5191 44.6282 33.4904 44.6029C33.3087 44.4398 33.2622 44.3882 33.2639 44.2944C33.2673 43.1309 33.2673 41.9673 33.2656 40.7277V40.2968C33.4042 40.4235 33.5394 40.5477 33.6746 40.6728C34.4452 41.3826 35.1711 42.0527 35.8927 42.7278C40.5334 47.0685 45.1707 51.4101 49.8088 55.7525L55.7863 61.3455C56.1826 61.7181 56.5831 62.0899 56.9811 62.4609C57.887 63.3042 58.8215 64.1737 59.7273 65.0423C60.2107 65.5046 60.7472 65.7175 61.4258 65.709C62.9375 65.6921 64.4356 65.6921 65.8797 65.709C66.5236 65.7175 67.0712 65.9397 67.4641 66.3512C67.8587 66.767 68.0615 67.3559 68.037 68.0099C68.0336 68.0826 68.0268 68.1274 68.0218 68.1519V68.1511Z" fill="#FF7800"/>
<path d="M21.4338 33.711C20.2078 32.4258 18.5507 31.716 16.7669 31.7109H16.7222C13.2383 31.7109 10.329 34.5315 10.225 38.0205C10.1735 39.7967 10.8208 41.4782 12.0519 42.755C13.2636 44.014 14.9071 44.7407 16.5591 44.7534C16.576 44.7551 16.5937 44.7551 16.6106 44.7551C20.19 44.7534 23.1095 42.0139 23.2683 38.4937C23.3461 36.7589 22.6777 35.0165 21.433 33.711H21.4338ZM21.1998 38.2529C21.1981 40.5994 19.1862 42.6282 16.805 42.684C15.6727 42.7119 14.526 42.2421 13.6641 41.4013C12.7913 40.5512 12.2893 39.4012 12.2877 38.2495C12.2809 35.8446 14.3097 33.8048 16.7171 33.7938H16.7382C17.9119 33.7938 19.0256 34.2594 19.8774 35.1078C20.7308 35.9595 21.2023 37.0749 21.2006 38.252L21.1998 38.2529Z" fill="#FF7800"/>
</svg>
