<svg width="60" height="69" viewBox="0 0 60 69" fill="none" xmlns="http://www.w3.org/2000/svg">
<path d="M32.4981 29.4874C32.4981 32.7438 32.5021 35.789 32.4941 38.8342C32.4925 39.3767 32.844 39.3687 33.2276 39.368C35.3815 39.3656 37.5353 39.364 39.6892 39.368C41.5068 39.3711 42.4597 40.3169 42.4605 42.1245C42.4629 47.7112 42.4629 53.2979 42.4605 58.8846C42.4597 60.6773 41.498 61.6159 39.6668 61.6183C37.5393 61.6214 35.4111 61.6381 33.2836 61.608C32.6655 61.5993 32.4693 61.8065 32.4853 62.4067C32.5213 63.7383 32.5021 65.0715 32.4941 66.4039C32.4845 67.9602 31.4612 68.9992 29.9511 69C28.4426 69 27.4081 67.9586 27.4073 66.4055C27.4033 56.181 27.4049 45.9558 27.4049 35.7313C27.4049 34.5546 27.4017 34.5064 26.235 34.5633C22.1346 34.7634 18.3505 33.835 14.9812 31.4881C11.145 28.8161 8.72369 25.1968 7.80368 20.6381C7.66996 19.9762 7.40573 19.7508 6.72514 19.7762C5.37756 19.826 4.02677 19.7951 2.67759 19.7896C1.04416 19.7825 -0.00796163 18.7798 4.53828e-05 17.2489C0.0080524 15.7607 1.05777 14.7659 2.65277 14.7651C10.5157 14.7612 18.3777 14.7635 26.2406 14.7628C27.0163 14.7628 27.4043 14.3684 27.4049 13.5798C27.4049 12.6317 27.3752 11.682 27.4153 10.7354C27.4409 10.1344 27.2351 9.93202 26.617 9.93755C23.6328 9.96286 20.6485 9.95099 17.6643 9.94704C16.2159 9.94546 15.1485 9.13177 14.9652 7.90531C14.7514 6.47483 15.4632 5.37725 16.9437 4.95894C17.328 4.85061 17.4473 4.68534 17.4409 4.32713C17.4289 3.66131 17.4217 2.99391 17.4449 2.32809C17.4938 0.968783 18.5851 -0.00938398 20.0176 0.000105109C21.3924 0.00880344 22.4725 0.998832 22.5214 2.32177C22.5462 2.98759 22.5414 3.65419 22.5254 4.32001C22.5158 4.73911 22.6767 4.92731 23.1163 4.92257C24.3614 4.90913 25.6073 4.9115 26.8532 4.9202C27.2543 4.92336 27.4105 4.74307 27.4049 4.35955C27.3953 3.69373 27.3888 3.02633 27.4097 2.36052C27.4505 0.990133 28.525 0.000105109 29.9495 0.000105109C31.3667 0.000105109 32.4477 0.998041 32.4893 2.36447C32.5093 3.03029 32.5037 3.6969 32.4941 4.3635C32.4885 4.74939 32.6503 4.92336 33.049 4.92099C34.2941 4.91229 35.54 4.90913 36.7859 4.92257C37.2279 4.92731 37.3832 4.73358 37.3736 4.31685C37.3584 3.67634 37.3584 3.03503 37.3752 2.39531C37.412 0.981435 38.4914 -0.0117563 39.9599 0.000105109C41.3667 0.0119665 42.4236 1.02414 42.458 2.40717C42.4741 3.04768 42.4725 3.68899 42.4596 4.32871C42.4524 4.6893 42.5782 4.84982 42.9601 4.95815C44.4342 5.37567 45.1524 6.48748 44.9338 7.91005C44.7449 9.13889 43.6839 9.94388 42.2307 9.94546C39.2729 9.94941 36.3143 9.96681 33.3565 9.93202C32.6575 9.92411 32.4525 10.1518 32.4845 10.8161C32.5334 11.8385 32.5326 12.8673 32.4845 13.8898C32.4533 14.554 32.6567 14.7857 33.3565 14.7746C35.7954 14.7367 38.2343 14.7596 40.6741 14.7604C46.2534 14.7604 51.8319 14.7564 57.4112 14.7651C58.5834 14.7667 59.5322 15.4958 59.8349 16.5696C60.1391 17.6498 59.7092 18.7996 58.7715 19.4029C58.3472 19.6765 57.882 19.7951 57.3711 19.7912C56.074 19.7801 54.7752 19.8204 53.4789 19.7762C52.7383 19.7508 52.8183 20.1027 52.9641 20.5804C53.9177 23.7102 55.7737 26.1473 58.6458 27.8008C59.5634 28.329 60.0455 29.1356 59.9966 30.1446C59.9462 31.1805 59.4121 32.0052 58.384 32.3974C57.5369 32.7209 56.7065 32.6275 55.9251 32.1547C51.478 29.4653 48.7436 25.5811 47.6978 20.5511C47.5657 19.9177 47.3015 19.7777 46.7178 19.7793C42.3588 19.7951 37.9989 19.803 33.6399 19.7738C32.9185 19.769 32.8232 19.9865 32.9994 20.6136C34.3509 25.4293 38.8004 29.0209 43.8561 29.4139C45.0499 29.5072 46.239 29.5033 47.4304 29.5254C48.8869 29.5523 49.9278 30.5834 49.9366 32.0036C49.9462 33.4816 48.9197 34.5127 47.4208 34.5522C44.3213 34.6337 41.2514 34.5609 38.328 33.325C36.207 32.4283 34.2893 31.2421 32.5005 29.4851L32.4981 29.4874ZM20.1689 19.7904C17.9902 19.7904 15.8115 19.8117 13.6328 19.7769C12.9874 19.7667 12.8745 19.9762 13.0435 20.5345C13.7969 23.0364 15.1677 25.1248 17.2231 26.7791C20.0432 29.0486 23.3437 29.6369 26.858 29.5294C27.4721 29.5104 27.4025 29.1142 27.4033 28.7315C27.4049 26.016 27.3848 23.3013 27.4177 20.5867C27.4257 19.9169 27.163 19.7714 26.5489 19.7793C24.4222 19.807 22.2956 19.7904 20.1689 19.7904ZM34.7489 56.5899C35.5016 56.5899 36.1221 56.5733 36.7418 56.5954C37.2159 56.612 37.3808 56.4111 37.3744 55.958C37.3576 54.7585 37.36 53.5581 37.3728 52.3585C37.3776 51.9283 37.1918 51.7702 36.7675 51.7741C35.5528 51.7868 34.3373 51.7907 33.1227 51.7726C32.6495 51.7654 32.4757 51.956 32.4909 52.4107C32.5117 53.0228 32.4757 53.6364 32.5005 54.2484C32.5302 54.9815 32.1826 55.9098 32.6487 56.3985C33.1555 56.9299 34.1219 56.4973 34.7489 56.5906V56.5899ZM34.8586 46.7489C35.1428 46.7489 35.4263 46.7536 35.7105 46.7481C37.5938 46.7093 37.3352 47.081 37.3776 45.0717C37.3896 44.511 37.1414 44.3727 36.6321 44.3893C35.8066 44.4154 34.9795 44.3821 34.154 44.3988C32.2731 44.4367 32.5181 44.0129 32.4909 46.1503C32.4845 46.635 32.7143 46.7679 33.1555 46.7536C33.7232 46.7346 34.2909 46.7489 34.8594 46.7497L34.8586 46.7489Z" fill="#FF7800"/>
</svg>
