<svg width="84" height="47" viewBox="0 0 84 47" fill="none" xmlns="http://www.w3.org/2000/svg">
<path d="M84.0057 44.0099C82.9974 45.2902 81.9612 45.2535 81.0773 43.8719C77.9911 39.0471 74.9192 34.2128 71.8384 29.3846C71.4454 28.7693 71.0925 28.1458 71.5079 27.4101C71.9295 26.6635 72.6434 26.5745 73.4179 26.5786C76.3096 26.5928 79.2013 26.5969 82.0931 26.5765C82.8879 26.5711 83.54 26.7819 84.0064 27.4495V28.7611C83.5583 29.3948 82.9443 29.6484 82.174 29.6314C81.0827 29.6076 79.9907 29.626 78.8995 29.626C77.8462 29.626 76.7937 29.626 75.5562 29.626C78.4398 34.1421 81.2228 38.5025 84.0064 42.8628V44.0106L84.0057 44.0099Z" fill="#FF7800"/>
<path d="M41.9733 46.3624C32.1096 46.3624 22.2465 46.3624 12.3828 46.3617C11.9211 46.3617 11.4527 46.4059 11.0372 46.1197C10.343 45.6417 10.1873 44.8455 10.6939 43.9473C12.1428 41.3778 13.6141 38.8213 15.078 36.26C17.504 32.0152 19.9341 27.7725 22.3573 23.5263C23.1501 22.1372 22.6307 21.2526 21.0186 21.2513C15.7178 21.2465 10.4171 21.2492 5.11708 21.2486C4.68056 21.2486 4.24269 21.271 3.82045 21.1173C3.19492 20.8902 2.80872 20.4714 2.79308 19.7874C2.7754 19.0225 2.80532 18.2569 2.78016 17.4926C2.76248 16.9521 3.01814 16.7651 3.5206 16.7685C4.64045 16.776 5.76097 16.7787 6.88081 16.7603C7.76404 16.7461 8.31478 16.2722 8.34538 15.544C8.37529 14.8348 7.7314 14.2392 6.87061 14.2242C5.75077 14.2052 4.63025 14.2038 3.51041 14.2208C2.99162 14.229 2.76792 14.0291 2.78016 13.4987C2.80192 12.5699 2.8196 11.6391 2.77336 10.7124C2.73801 10.0127 3.03038 9.83459 3.68515 9.83731C8.63027 9.85703 13.5761 9.84751 18.5212 9.84751C21.9637 9.84751 25.4068 9.8312 28.8493 9.85839C29.7713 9.86587 30.3785 9.53542 30.8333 8.71679C32.3047 6.06643 33.8386 3.45075 35.3202 0.805143C35.6357 0.242163 36.0022 -0.00600902 36.6739 0.000110339C40.2531 0.032067 43.8322 0.029341 47.4114 0.00214382C48.043 -0.00261568 48.4075 0.212248 48.7114 0.756871C50.1501 3.33176 51.6514 5.87265 53.0684 8.4591C53.6177 9.46199 54.316 9.87607 55.4869 9.86995C63.6834 9.82711 71.8806 9.84683 80.0772 9.84751C80.874 9.84751 81.2732 10.2552 81.2745 11.0707C81.2752 11.8628 81.2528 12.6563 81.28 13.4477C81.299 14.008 81.0848 14.2358 80.5164 14.2222C79.4516 14.197 78.3855 14.2099 77.3201 14.2201C76.3675 14.229 75.7195 14.7505 75.7134 15.4916C75.7066 16.2674 76.2947 16.7508 77.2895 16.7624C78.3005 16.7739 79.3122 16.7937 80.3219 16.7576C81.008 16.7331 81.3439 16.9412 81.2847 17.6864C81.2351 18.3106 81.2834 18.9429 81.2718 19.5705C81.2541 20.5435 80.7789 21.0847 79.8106 21.2159C79.4877 21.2594 79.1565 21.2465 78.8288 21.2465C73.5832 21.2479 68.3368 21.2451 63.0912 21.2492C61.388 21.2506 60.9011 22.127 61.7558 23.6215C65.5267 30.2127 69.2962 36.804 73.0644 43.3965C73.2269 43.6808 73.3969 43.9643 73.5254 44.2641C73.9639 45.2922 73.3411 46.2842 72.2199 46.3542C71.9479 46.3712 71.6739 46.3604 71.4006 46.3604C61.5919 46.3604 51.7833 46.3604 41.974 46.3604L41.9733 46.3624ZM40.761 38.5487C40.761 39.6665 40.7494 40.7843 40.7644 41.9014C40.7773 42.854 41.239 43.3462 42.0603 43.3306C42.8375 43.3156 43.2869 42.8288 43.2923 41.9197C43.3059 39.712 43.3059 37.5036 43.2923 35.2959C43.2869 34.344 42.8178 33.8517 41.9957 33.8673C41.2172 33.8816 40.7773 34.3671 40.7637 35.2775C40.7474 36.3674 40.7596 37.458 40.7596 38.5487H40.761ZM43.2957 25.3961C43.2957 24.468 43.3121 23.5392 43.291 22.6111C43.2713 21.7374 42.7756 21.2438 41.9903 21.2628C41.2464 21.2812 40.7766 21.7653 40.7685 22.6064C40.7508 24.4082 40.7501 26.2107 40.7685 28.0132C40.7773 28.8801 41.292 29.3846 42.0678 29.3649C42.8028 29.3458 43.2713 28.8508 43.291 28.0179C43.3114 27.1449 43.2957 26.2705 43.2957 25.3968V25.3961ZM43.2971 14.8151C43.2971 14.1617 43.2971 13.5082 43.2971 12.8555C43.2971 12.8011 43.2971 12.7467 43.2923 12.6923C43.2339 11.9362 42.7572 11.4528 42.0576 11.4379C41.324 11.4222 40.7868 11.9206 40.7719 12.7168C40.7453 14.1045 40.7474 15.493 40.7705 16.8807C40.7834 17.6558 41.3491 18.2072 42.0406 18.1991C42.7362 18.1909 43.2638 17.6429 43.2903 16.8562C43.3127 16.1763 43.2951 15.4957 43.2971 14.8151ZM14.753 16.7583V16.761C15.4336 16.761 16.1149 16.7801 16.7949 16.7563C17.5904 16.7284 18.0439 16.2898 18.0745 15.5698C18.1064 14.8137 17.64 14.2548 16.8499 14.2351C15.435 14.1997 14.0173 14.1997 12.6024 14.2371C11.8511 14.2568 11.4064 14.7872 11.4051 15.5181C11.4037 16.2436 11.8518 16.7196 12.6289 16.7522C13.3354 16.7821 14.0445 16.7583 14.7523 16.7583H14.753ZM59.4746 16.7597C59.4746 16.7597 59.4746 16.7569 59.4746 16.7549C60.2103 16.7549 60.9481 16.7821 61.6824 16.7474C62.3997 16.7134 62.8716 16.215 62.892 15.5528C62.913 14.8831 62.4038 14.2609 61.6933 14.2412C60.2498 14.2011 58.8029 14.1991 57.3594 14.2446C56.5985 14.2691 56.1573 14.8185 56.175 15.5385C56.1926 16.2613 56.6495 16.7243 57.4294 16.7549C58.11 16.7814 58.792 16.7603 59.474 16.7603L59.4746 16.7597ZM69.3037 16.7583C70.0115 16.7583 70.7207 16.7814 71.4271 16.7522C72.2063 16.7196 72.6537 16.245 72.653 15.5195C72.6523 14.7886 72.2084 14.2568 71.4563 14.2378C70.0142 14.2018 68.5694 14.1977 67.1279 14.2433C66.397 14.2664 65.953 14.8491 65.9829 15.5691C66.0115 16.262 66.446 16.7182 67.1803 16.7508C67.8867 16.7821 68.5959 16.7576 69.3037 16.759V16.7583ZM24.461 16.7569C24.461 16.7569 24.461 16.7624 24.461 16.7651C25.1151 16.7651 25.7692 16.7651 26.4233 16.7651C26.4777 16.7651 26.5321 16.7644 26.5865 16.761C27.3841 16.7155 27.843 16.2959 27.8811 15.5807C27.9205 14.8273 27.4629 14.265 26.6606 14.2405C25.245 14.1977 23.8267 14.2018 22.4104 14.2358C21.6856 14.2528 21.1722 14.8307 21.1682 15.5052C21.1634 16.1708 21.6869 16.7182 22.4179 16.7501C23.0978 16.7801 23.7798 16.7563 24.461 16.7563V16.7569ZM43.2876 5.68703C43.2876 5.19612 43.3182 4.70318 43.2801 4.21499C43.2257 3.51126 42.7226 3.06999 42.0365 3.06591C41.3498 3.06183 40.8113 3.4997 40.7814 4.19799C40.7385 5.20496 40.7399 6.2167 40.78 7.22435C40.8079 7.92468 41.3396 8.37139 42.0195 8.37547C42.7029 8.37955 43.2216 7.93828 43.2774 7.24067C43.3182 6.72596 43.2855 6.20513 43.2869 5.68703H43.2876Z" fill="#FF7800"/>
<path d="M8.46173 29.6239C6.10645 29.6239 3.9232 29.6355 1.73995 29.6192C0.622148 29.611 -0.00338586 29.0385 1.3785e-05 28.0968C0.00341343 27.1592 0.631667 26.5969 1.75491 26.5901C4.13194 26.5751 6.50965 26.5847 8.88736 26.5847C9.62508 26.5847 10.3642 26.5629 11.1005 26.5928C12.5318 26.6513 13.2001 27.85 12.4345 29.0623C9.2688 34.0748 6.07994 39.0729 2.88767 44.069C2.34713 44.9142 1.4367 45.1392 0.70374 44.6728C-0.0278629 44.207 -0.180167 43.3089 0.367855 42.4413C2.89379 38.446 5.4306 34.4589 7.96266 30.4677C8.10544 30.2427 8.23531 30.0088 8.46105 29.6253L8.46173 29.6239Z" fill="#FF7800"/>
</svg>
