<svg width="63" height="84" viewBox="0 0 63 84" fill="none" xmlns="http://www.w3.org/2000/svg">
<path d="M52.9878 54.2963C55.2898 57.0965 57.3877 59.7389 59.184 62.6024C60.1761 64.185 61.0866 65.8084 61.8038 67.5392C63.5175 71.6708 62.8185 75.5135 60.1139 78.9C57.0613 82.7223 52.948 84.1976 48.1562 83.1249C43.4029 82.0609 40.4041 79.0084 39.1253 74.2971C38.3802 71.5516 38.9739 68.9876 40.1808 66.4956C42.0715 62.5874 44.6355 59.1344 47.3294 55.763C47.6665 55.341 48.3988 54.8353 48.2249 54.496C47.979 54.0182 47.1855 54.3189 46.6304 54.3049C45.3141 54.2738 43.9956 54.3071 42.6782 54.2899C41.4606 54.2727 40.6629 53.7681 40.3955 52.8909C40.0938 51.9031 40.3912 51.1654 41.4885 50.4181C41.8847 50.1487 41.7945 49.8974 41.6388 49.5893C40.651 47.6373 39.0663 46.5056 36.9178 46.1309C36.4411 46.0482 36.2242 46.3735 35.9622 46.6441C33.9813 48.6852 31.6363 50.1164 28.8404 50.6855C23.8725 51.6958 19.6303 50.271 16.1022 46.6774C15.7038 46.2715 15.3259 46.0761 14.7536 46.0794C11.4874 46.1019 8.22126 46.1051 4.95509 46.0794C4.28833 46.074 3.98232 46.2608 4.05533 46.9609C4.09506 47.3409 4.07251 47.7285 4.05641 48.1129C4.00916 49.3026 3.15236 50.1744 2.03465 50.1852C0.855733 50.1959 0.00751584 49.3369 0.00536846 48.0657C-0.00322108 41.5065 0.00107369 34.9462 0.00107369 28.3871C0.00107369 28.3323 0.00107369 28.2775 0.00322108 28.2228C0.0515372 27.2114 0.617373 26.5328 1.60624 26.3009C2.45983 26.1012 3.4444 26.506 3.81483 27.3413C4.07037 27.9179 4.40643 28.0832 5.00555 28.0768C7.69515 28.0489 10.3847 28.0435 13.0743 28.0789C13.7969 28.0886 14.0664 27.8588 14.0085 27.1341C13.9558 26.4791 13.9945 25.8177 13.9988 25.1585C14.0095 23.6693 14.7278 22.937 16.2256 22.9327C19.5186 22.922 22.8127 22.9284 26.1068 22.9284C27.4522 22.9284 28.7975 22.8951 30.1407 22.9413C30.8633 22.966 31.1864 22.7931 31.1489 21.99C31.1167 21.2824 31.1167 20.81 30.1643 20.824C26.5696 20.8734 22.9738 20.8465 19.378 20.8401C18.9678 20.8401 18.5534 20.824 18.1486 20.7639C16.9257 20.5835 16.2654 19.8126 16.3083 18.653C16.3502 17.5342 17.12 16.7547 18.3408 16.6999C19.4639 16.6505 20.5913 16.6978 21.7165 16.6785C24.0679 16.6377 23.6899 17.0736 23.7501 14.6256C23.764 14.0458 23.5783 13.7 23.0253 13.5046C22.6667 13.3779 22.278 13.2244 22.0128 12.9688C21.1592 12.1464 20.1392 12.1077 19.0419 12.1206C15.6942 12.1593 12.3453 12.1485 8.99646 12.1292C6.33371 12.1131 4.39892 10.625 3.86851 8.23709C3.27369 5.56145 5.23317 2.79562 7.94961 2.50465C10.2484 2.25877 12.5558 2.43915 14.8588 2.3962C16.0656 2.37366 17.2757 2.35863 18.4815 2.40157C19.7345 2.4456 20.7781 2.24159 21.8625 1.38693C24.4716 -0.669186 28.0266 -0.380362 30.4585 1.86365C30.8772 2.25018 31.3003 2.40265 31.8543 2.4005C35.3674 2.38547 38.8805 2.38976 42.3936 2.39513C44.0096 2.39728 45.502 2.73227 46.6337 4.01426C47.8673 5.41113 48.1991 7.02167 47.6257 8.76642C47.0502 10.5198 45.7962 11.602 43.9849 11.98C43.4265 12.0959 42.8414 12.1271 42.2691 12.1292C38.7281 12.1421 35.1881 12.1443 31.6471 12.1281C31.0694 12.126 30.5809 12.243 30.1375 12.6349C29.854 12.8851 29.4889 13.0429 29.1733 13.2598C28.7771 13.5325 28.0781 13.5068 27.989 14.0404C27.8655 14.7877 27.9149 15.5715 27.9632 16.3349C27.9901 16.7482 28.3991 16.6763 28.689 16.6774C30.0065 16.6849 31.3239 16.6752 32.6413 16.6838C34.2969 16.6935 35.0646 17.4107 35.1344 19.0717C35.1784 20.1132 35.1613 21.1579 35.1441 22.2005C35.1355 22.719 35.3288 22.9123 35.8635 22.9424C37.1905 23.0186 37.9443 23.8454 37.9808 25.1853C37.998 25.7887 37.9776 26.3932 37.998 26.9966C38.0345 28.0929 38.1504 28.2228 39.1983 28.3495C41.481 28.6254 43.6595 29.2718 45.7038 30.3058C52.4112 33.6965 56.2657 39.2646 57.8978 46.4841C58.1383 47.5492 58.265 48.6433 58.3927 49.7299C58.4389 50.1164 58.6182 50.2936 58.9264 50.4718C59.7509 50.9496 60.1461 51.7291 60.0119 52.5086C59.8519 53.4341 59.2549 54.0537 58.2531 54.2147C57.6895 54.3049 57.1064 54.2888 56.532 54.2942C55.4165 54.3049 54.302 54.2974 52.9845 54.2974L52.9878 54.2963ZM10.3235 32.2352C8.54014 32.2352 6.7546 32.2663 4.97227 32.2201C4.23142 32.2008 4.03923 32.4714 4.04782 33.1768C4.08218 35.8385 4.08218 38.5012 4.04782 41.1629C4.03923 41.8608 4.28725 42.0476 4.95401 42.0423C8.13751 42.0154 11.321 42.0068 14.5045 42.0369C17.4453 42.0648 17.3283 41.7781 19.3254 43.9899C23.2003 48.2804 29.9947 47.7661 33.5153 43.146C33.9619 42.5609 34.4354 42.0799 35.2396 42.0305C40.2162 41.7255 44.3811 44.5654 45.8864 49.352C46.0807 49.9704 46.3813 50.1497 46.9976 50.1379C48.8626 50.1035 50.7298 50.1454 52.5959 50.1197C54.3621 50.095 54.6037 50.562 54.1871 48.2493C53.2004 42.7659 50.6192 38.2597 45.9272 35.1191C43.1023 33.2283 39.9585 32.2781 36.5463 32.2384C34.9154 32.2191 34.1327 31.4127 34.0876 29.8108C34.0672 29.071 33.9813 28.3334 33.9576 27.5947C33.9437 27.1244 33.715 26.988 33.2812 26.988C28.4238 26.9945 23.5665 26.9966 18.7091 26.9859C18.1905 26.9848 18.0423 27.2189 18.0552 27.6892C18.0745 28.3742 18.0627 29.0613 18.0584 29.7474C18.0477 31.4363 17.2778 32.2212 15.5932 32.233C13.8367 32.2448 12.0801 32.2362 10.3246 32.2362L10.3235 32.2352ZM50.6267 79.294C55.9877 79.4604 60.1471 73.6303 57.8258 68.8051C56.0166 65.0429 53.5837 61.7123 51.0175 58.459C50.6901 58.0446 50.4732 58.2722 50.2477 58.5535C47.7267 61.7048 45.2991 64.9184 43.5897 68.6043C43.1388 69.576 42.7533 70.595 42.7855 71.6815C42.9122 75.8915 46.4211 79.279 50.6267 79.294ZM25.7847 10.0914C27.4081 10.1032 28.8308 8.7181 28.8071 7.14836C28.7846 5.62372 27.4307 4.27409 25.9028 4.25154C24.2783 4.22792 22.8632 5.5797 22.8535 7.16662C22.8428 8.77716 24.1495 10.0795 25.7858 10.0914H25.7847ZM13.3095 8.1061V8.10395C14.8964 8.10395 16.4844 8.09107 18.0713 8.11147C18.5953 8.11791 18.8164 7.94075 18.7939 7.39746C18.7735 6.9186 18.7714 6.54602 18.1143 6.55139C14.9941 6.57287 11.875 6.56106 8.75488 6.56535C8.22341 6.56535 7.83258 6.76398 7.84332 7.37062C7.85513 7.99014 8.26098 8.11684 8.79461 8.11254C10.2999 8.09966 11.8052 8.10824 13.3106 8.10824L13.3095 8.1061ZM38.3072 6.55783C36.746 6.55783 35.186 6.55139 33.6248 6.5632C33.3295 6.56535 32.8346 6.45691 32.9656 6.99375C33.0676 7.41035 32.6209 8.16193 33.6377 8.14905C36.7042 8.11039 39.7706 8.13401 42.8371 8.13509C43.3986 8.13509 43.9548 8.04919 43.9408 7.34807C43.928 6.67379 43.3975 6.55461 42.8242 6.55676C41.3178 6.56428 39.8125 6.55891 38.3061 6.55891L38.3072 6.55783Z" fill="#FF7800"/>
<path d="M50.5635 77.0565C49.274 77.0372 48.0457 76.7033 46.9323 75.9936C45.9466 75.3644 45.6352 74.1844 46.171 73.1966C46.666 72.284 47.7687 71.8803 48.7962 72.4075C50.09 73.0699 51.285 73.0259 52.5509 72.372C53.5226 71.8695 54.7423 72.3065 55.2437 73.2374C55.7258 74.134 55.4166 75.2785 54.4707 75.9002C53.2993 76.67 51.999 77.0533 50.5635 77.0576V77.0565Z" fill="#FF7800"/>
</svg>
