<svg width="115" height="114" viewBox="0 0 115 114" fill="none" xmlns="http://www.w3.org/2000/svg">
<path fill-rule="evenodd" clip-rule="evenodd" d="M57.5 110.438C85.2868 110.438 107.812 88.1077 107.812 60.5625C107.812 33.0173 85.2868 10.6875 57.5 10.6875C29.7132 10.6875 7.1875 33.0173 7.1875 60.5625C7.1875 69.5075 9.56296 77.9025 13.7226 85.1615L7.1875 110.438L33.4753 104.395C40.6143 108.248 48.7992 110.438 57.5 110.438ZM57.5 102.764C81.0119 102.764 100.072 83.87 100.072 60.5625C100.072 37.255 81.0119 18.3606 57.5 18.3606C33.9881 18.3606 14.9279 37.255 14.9279 60.5625C14.9279 69.5616 17.7693 77.9028 22.6113 84.7527L18.7981 98.9279L33.3497 95.3216C40.2118 100.016 48.5321 102.764 57.5 102.764Z" fill="#BFC8D0"/>
<path d="M100.625 57C100.625 80.6102 81.3173 99.75 57.5 99.75C48.4156 99.75 39.9872 96.9655 33.0361 92.2105L18.2955 95.8636L22.1582 81.5043C17.2533 74.5655 14.375 66.116 14.375 57C14.375 33.3898 33.6827 14.25 57.5 14.25C81.3173 14.25 100.625 33.3898 100.625 57Z" fill="url(#paint0_linear_573_781)"/>
<path fill-rule="evenodd" clip-rule="evenodd" d="M57.5 106.875C85.2868 106.875 107.812 84.5452 107.812 57C107.812 29.4548 85.2868 7.125 57.5 7.125C29.7132 7.125 7.1875 29.4548 7.1875 57C7.1875 65.945 9.56296 74.34 13.7226 81.599L7.1875 106.875L33.4753 100.832C40.6143 104.686 48.7992 106.875 57.5 106.875ZM57.5 99.2019C81.0119 99.2019 100.072 80.3075 100.072 57C100.072 33.6925 81.0119 14.7981 57.5 14.7981C33.9881 14.7981 14.9279 33.6925 14.9279 57C14.9279 65.9991 17.7693 74.3403 22.6113 81.1902L18.7981 95.3654L33.3497 91.7591C40.2118 96.4531 48.5321 99.2019 57.5 99.2019Z" fill="white"/>
<path d="M44.922 33.8437C43.7257 31.4619 41.8906 31.6727 40.0368 31.6727C36.7237 31.6727 31.5576 35.6067 31.5576 42.9283C31.5576 48.9287 34.2249 55.4971 43.2127 65.3228C51.8867 74.8053 63.2837 79.7106 72.7454 79.5436C82.2071 79.3766 84.1537 71.3053 84.1537 68.5796C84.1537 67.3715 83.3974 66.7687 82.8764 66.6049C79.6521 65.071 73.7054 62.2128 72.3523 61.6758C70.9992 61.1388 70.2927 61.8651 69.8536 62.2602C68.6265 63.4194 66.1942 66.8356 65.3614 67.604C64.5286 68.3724 63.2869 67.9835 62.7702 67.693C60.8689 66.9367 55.7136 64.6635 51.6043 60.7147C46.5223 55.831 46.224 54.1508 45.2665 52.6552C44.5005 51.4587 45.0626 50.7246 45.3431 50.4037C46.4381 49.1513 47.95 47.2177 48.628 46.2568C49.306 45.2959 48.7678 43.837 48.4448 42.9283C47.0557 39.0204 45.8789 35.7491 44.922 33.8437Z" fill="white"/>
<defs>
<linearGradient id="paint0_linear_573_781" x1="95.2344" y1="24.9375" x2="15.0329" y2="100.449" gradientUnits="userSpaceOnUse">
<stop stop-color="#5BD066"/>
<stop offset="1" stop-color="#27B43E"/>
</linearGradient>
</defs>
</svg>
